<svg xmlns="http://www.w3.org/2000/svg" xmlns:xlink="http://www.w3.org/1999/xlink" width="200" height="200" viewBox="0 0 200 200">
  <defs>
    <style>
      .cls-1 {
        fill: none;
      }

      .cls-2 {
        opacity: 0.4;
        filter: url(#AI_Shadow_1);
      }

      .cls-3, .cls-5 {
        fill: #fff;
      }

      .cls-4 {
        fill: #ad9e91;
      }

      .cls-4, .cls-6 {
        stroke: #736357;
        stroke-linecap: round;
        stroke-linejoin: round;
      }

      .cls-5 {
        stroke: #fff;
        stroke-miterlimit: 10;
      }

      .cls-6 {
        fill: #998675;
      }

      .cls-7 {
        isolation: isolate;
      }

      .cls-8 {
        clip-path: url(#clip-path);
      }

      .cls-9 {
        fill: #736357;
      }

      .cls-10 {
        clip-path: url(#clip-path-2);
      }
    </style>
    <filter id="AI_Shadow_1" name="AI_Shadow_1">
      <feGaussianBlur result="blur" stdDeviation="2" in="SourceAlpha"/>
      <feOffset result="offsetBlurredAlpha" dx="4" dy="4" in="blur"/>
      <feMerge>
        <feMergeNode in="offsetBlurredAlpha"/>
        <feMergeNode in="SourceGraphic"/>
      </feMerge>
    </filter>
    <clipPath id="clip-path">
      <polygon class="cls-1" points="104.78 123.64 104.8 112.04 135.69 107.69 135.67 119.3 104.78 123.64"/>
    </clipPath>
    <clipPath id="clip-path-2">
      <polygon class="cls-1" points="99.8 108.65 99.81 102.96 139.6 97.37 139.59 103.06 99.8 108.65"/>
    </clipPath>
  </defs>
  <g id="Kakao">
    <g class="cls-2">
      <ellipse cx="80.32" cy="104.49" rx="21.94" ry="51.35" transform="translate(-2.49 1.96) rotate(-1.38)"/>
    </g>
    <g>
      <path class="cls-3" d="M125.27,48.4l-35.2,2.43c-1,.07-1.87-1-1.87-2.45V44.51c0-1.33.77-2.41,1.73-2.45l35.2-1.32c1,0,1.83,1.07,1.83,2.45V46A2.24,2.24,0,0,1,125.27,48.4Z"/>
      <polygon class="cls-4" points="141.8 153.04 96.28 162.31 97.31 69.28 142.31 64.54 141.8 153.04"/>
      <polygon class="cls-4" points="69.4 153.77 96.28 162.31 97.24 69.1 70.82 63.87 69.4 153.77"/>
      <polygon class="cls-4" points="142.36 64.03 97.51 69.1 88.2 49.41 126.96 47.13 142.36 64.03"/>
      <polygon class="cls-4" points="88.01 49.37 94.26 62.01 97.31 69.28 83.32 66.74 71.42 64.03 80.16 56.87 88.01 49.37"/>
      <polygon class="cls-5" points="96.6 131.59 69.85 125.17 70.39 91.02 96.6 96.75 96.6 131.59"/>
      <polygon class="cls-5" points="141.98 124.27 96.6 131.59 97.31 96.59 142.39 90.79 141.98 124.27"/>
      <polygon class="cls-6" points="92.61 58.67 95.04 63.87 97.24 69.1 80.78 66.21 71.42 64.03 79.2 62.06 92.61 58.67"/>
      <g class="cls-7">
        <g class="cls-8">
          <g>
            <polyline class="cls-9" points="113.45 110.82 111.63 111.08 109.1 121.09 106.63 111.78 104.8 112.04 104.78 123.64 105.94 123.47 105.95 113.61 108.56 123.11 109.65 122.95 112.3 112.72 112.28 122.58 113.43 122.42 113.45 110.82"/>
            <polyline class="cls-9" points="117.53 110.25 116.31 110.42 116.29 122.02 117.51 121.85 117.53 110.25"/>
            <polyline class="cls-9" points="121.59 109.67 120.38 109.85 120.36 121.45 126.05 120.65 126.05 119.27 121.58 119.89 121.59 109.67"/>
            <polyline class="cls-9" points="135.52 107.72 133.88 107.95 129.38 114.33 129.39 108.58 128.17 108.75 128.15 120.35 129.37 120.18 129.37 116.16 130.81 114.2 134.06 119.52 135.67 119.3 131.65 113.02 135.52 107.72"/>
          </g>
        </g>
      </g>
      <g class="cls-7">
        <g class="cls-10">
          <g>
            <path class="cls-9" d="M101.83,102.68a2.07,2.07,0,0,0-1.47,1,3.89,3.89,0,0,0-.56,2.16,3.13,3.13,0,0,0,.55,2,1.52,1.52,0,0,0,1.47.56,1.92,1.92,0,0,0,1.23-.66,2.28,2.28,0,0,0,.55-1.43l-.6.08a1.52,1.52,0,0,1-.35,1,1.33,1.33,0,0,1-.84.44,1,1,0,0,1-1-.44,2.73,2.73,0,0,1-.38-1.58,3.16,3.16,0,0,1,.4-1.71,1.43,1.43,0,0,1,1-.72,1,1,0,0,1,.82.19,1.1,1.1,0,0,1,.35.78l.6-.09A1.62,1.62,0,0,0,103,103a1.46,1.46,0,0,0-1.21-.31"/>
            <polyline class="cls-9" points="108.14 101.89 107.57 101.97 107.56 104.22 105.29 104.55 105.29 102.29 104.72 102.37 104.7 107.87 105.28 107.79 105.29 105.19 107.56 104.87 107.56 107.47 108.13 107.39 108.14 101.89"/>
            <path class="cls-9" d="M111.31,106.41a1.11,1.11,0,0,1-1.08-.43,2.54,2.54,0,0,1-.41-1.58,3.1,3.1,0,0,1,.42-1.7,1.5,1.5,0,0,1,1.08-.73,1.09,1.09,0,0,1,1.07.43,2.59,2.59,0,0,1,.41,1.58,3.11,3.11,0,0,1-.42,1.69,1.52,1.52,0,0,1-1.07.74m0-5.06a2.12,2.12,0,0,0-1.51,1,3.72,3.72,0,0,0-.59,2.14,3,3,0,0,0,.58,2,1.61,1.61,0,0,0,1.51.58,2.14,2.14,0,0,0,1.5-1,3.74,3.74,0,0,0,.59-2.14,3.08,3.08,0,0,0-.58-2,1.55,1.55,0,0,0-1.5-.56"/>
            <path class="cls-9" d="M116.31,100.65a2,2,0,0,0-1.49,1,3.91,3.91,0,0,0-.55,2.17,3.1,3.1,0,0,0,.55,2,1.49,1.49,0,0,0,1.48.56,2,2,0,0,0,1.22-.65,2.37,2.37,0,0,0,.56-1.44l-.6.09a1.59,1.59,0,0,1-.36,1,1.37,1.37,0,0,1-.83.43,1,1,0,0,1-1-.43,2.67,2.67,0,0,1-.38-1.59,3.19,3.19,0,0,1,.39-1.7,1.43,1.43,0,0,1,1-.72,1,1,0,0,1,1.17,1l.6-.08a1.66,1.66,0,0,0-.56-1.19,1.46,1.46,0,0,0-1.21-.31"/>
            <path class="cls-9" d="M121.06,105a1.09,1.09,0,0,1-1.06-.44,2.49,2.49,0,0,1-.42-1.57,3,3,0,0,1,.43-1.7,1.5,1.5,0,0,1,1.08-.73,1.07,1.07,0,0,1,1,.43,2.5,2.5,0,0,1,.42,1.58,3,3,0,0,1-.42,1.69,1.52,1.52,0,0,1-1.08.74m0-5.07a2.16,2.16,0,0,0-1.51,1,3.78,3.78,0,0,0-.59,2.15,3,3,0,0,0,.59,2,1.54,1.54,0,0,0,1.5.57,2.1,2.1,0,0,0,1.5-1,3.74,3.74,0,0,0,.59-2.14,3,3,0,0,0-.58-2,1.58,1.58,0,0,0-1.5-.57"/>
            <polyline class="cls-9" points="124.81 99.55 124.24 99.63 124.23 105.12 126.93 104.74 126.94 104.09 124.81 104.39 124.81 99.55"/>
            <path class="cls-9" d="M128.68,102.24l.75-2.65.76,2.44-1.51.21m1.06-3.39-.62.09-1.69,5.73.61-.08.49-1.75,1.83-.25.5,1.6.66-.09-1.78-5.25"/>
            <polyline class="cls-9" points="135.42 98.05 131.96 98.54 131.96 99.19 133.39 98.99 133.38 103.84 133.96 103.76 133.97 98.91 135.42 98.7 135.42 98.05"/>
            <polyline class="cls-9" points="139.5 97.48 136.34 97.92 136.33 103.42 139.59 102.97 139.59 102.31 136.92 102.68 136.92 100.83 139.32 100.49 139.32 99.83 136.92 100.17 136.92 98.49 139.5 98.13 139.5 97.48"/>
          </g>
        </g>
      </g>
    </g>
  </g>
</svg>
