<svg xmlns="http://www.w3.org/2000/svg" xmlns:xlink="http://www.w3.org/1999/xlink" width="200" height="200" viewBox="0 0 200 200">
  <defs>
    <style>
      .cls-1 {
        opacity: 0.4;
        filter: url(#AI_Shadow_1);
      }

      .cls-2 {
        fill: #963;
      }

      .cls-3 {
        fill: #ad7a45;
      }

      .cls-4 {
        fill: #c7b299;
        stroke: #998675;
        stroke-width: 0.05px;
      }

      .cls-4, .cls-6 {
        stroke-miterlimit: 10;
      }

      .cls-5 {
        fill: #998675;
      }

      .cls-6 {
        fill: none;
        stroke: #7f5200;
        stroke-linecap: round;
        stroke-width: 2px;
      }

      .cls-7 {
        fill: #a67c52;
      }
    </style>
    <filter id="AI_Shadow_1" name="AI_Shadow_1">
      <feGaussianBlur result="blur" stdDeviation="2" in="SourceAlpha"/>
      <feOffset result="offsetBlurredAlpha" dx="4" dy="4" in="blur"/>
      <feMerge>
        <feMergeNode in="offsetBlurredAlpha"/>
        <feMergeNode in="SourceGraphic"/>
      </feMerge>
    </filter>
  </defs>
  <g id="Potatoes">
    <g class="cls-1">
      <ellipse cx="97.72" cy="167.88" rx="58.03" ry="5.37"/>
    </g>
    <g>
      <path class="cls-2" d="M95.71,156.55c0-9.35,43-21.5,54-21.5s7.84,12.15,7.84,21.5-7.41,10.38-18.48,10.38S95.71,165.89,95.71,156.55Z"/>
      <path class="cls-2" d="M119.05,158.13c0,8.46-45.75,11.69-58.73,11.69s-26,1.78-26-6.68,5.76-23.95,18.75-23.95S119.05,149.67,119.05,158.13Z"/>
      <path class="cls-2" d="M153,131.27c0,15-68.85,33-88.86,33s-25.95-23.85-25.95-38.84S54.39,98.28,74.4,98.28,153,116.28,153,131.27Z"/>
      <path class="cls-2" d="M95.71,118.87c0,12.6,33.86,23.42,40.45,23.42s14.86-7,14.86-19.63,3.66-30.83-2.93-30.83S95.71,106.27,95.71,118.87Z"/>
      <path class="cls-2" d="M85.59,114.59c0,9.83-9.43,17.8-21.07,17.8s-21.07-8-21.07-17.8,7.21-23.73,13.33-17.36C64.11,104.87,85.59,104.76,85.59,114.59Z"/>
      <path class="cls-2" d="M150.59,92.53c0,4.47-52.41,27.71-82,27.71S43.45,97,43.45,92.53s24-3.62,53.57-3.62S150.59,88.06,150.59,92.53Z"/>
      <path class="cls-3" d="M146.52,62.08c0,7.39-22.67,13.39-50.63,13.39s-50.64-6-50.64-13.39,24.47-8.59,52.44-8.59S146.52,54.69,146.52,62.08Z"/>
      <g>
        <path class="cls-4" d="M137.21,69c-3.94,4.59-9.9,6-13.3,3s-3.91-10,1-13.61a38.14,38.14,0,0,1,3.77-2.49c3.67-2.07,7-2.74,9.53-.55C141.59,58.25,141.15,64.35,137.21,69Z"/>
        <path class="cls-5" d="M130.88,56a3.2,3.2,0,0,0,0,1.62"/>
        <path class="cls-5" d="M133.39,65.86a3.16,3.16,0,0,0,1.38.83"/>
        <path class="cls-5" d="M128.65,65.26a3.22,3.22,0,0,0,1.56.43"/>
        <path class="cls-5" d="M133.3,69.18a3.27,3.27,0,0,0,1.56.42"/>
        <path class="cls-5" d="M134,63.08a3.26,3.26,0,0,0,1.48.67"/>
        <path class="cls-5" d="M133.68,60.1a3.3,3.3,0,0,0,1.48.66"/>
        <path class="cls-5" d="M129.81,60a3.22,3.22,0,0,0,.66,1.48"/>
        <path class="cls-5" d="M134.83,55.51a3.22,3.22,0,0,0,.66,1.48"/>
        <path class="cls-5" d="M137.26,59a3.17,3.17,0,0,0,1.4.81"/>
        <path class="cls-5" d="M124.93,67.42a3.31,3.31,0,0,0,1.52.56"/>
        <path class="cls-5" d="M137.6,62.29a3.23,3.23,0,0,0,1.42.76"/>
        <path class="cls-5" d="M125.7,59.27a3.2,3.2,0,0,0,.63,1.49"/>
        <path class="cls-5" d="M121.82,65a3.23,3.23,0,0,0,1,1.3"/>
        <path class="cls-5" d="M129.67,68.39a3.31,3.31,0,0,0,1.41.79"/>
        <path class="cls-5" d="M125.51,62.35a3.15,3.15,0,0,0,1,1.24"/>
        <path class="cls-5" d="M129.16,71.58a3.23,3.23,0,0,0,1.55.47"/>
        <path class="cls-5" d="M124,70a3.23,3.23,0,0,0,1.24,1"/>
      </g>
      <g>
        <path class="cls-4" d="M127.09,64.14c-3.94,4.6-9.89,6-13.3,3s-3.91-10,1-13.61a37.09,37.09,0,0,1,3.78-2.49c3.67-2.07,7-2.74,9.52-.55C131.47,53.45,131,59.54,127.09,64.14Z"/>
        <path class="cls-5" d="M120.76,51.22a3.31,3.31,0,0,0,0,1.61"/>
        <path class="cls-5" d="M123.27,61.05a3.24,3.24,0,0,0,1.39.84"/>
        <path class="cls-5" d="M118.53,60.46a3.27,3.27,0,0,0,1.56.42"/>
        <path class="cls-5" d="M123.18,64.37a3.22,3.22,0,0,0,1.56.43"/>
        <path class="cls-5" d="M123.89,58.28a3.3,3.3,0,0,0,1.48.66"/>
        <path class="cls-5" d="M123.57,55.29A3.2,3.2,0,0,0,125,56"/>
        <path class="cls-5" d="M119.69,55.24a3.29,3.29,0,0,0,.66,1.48"/>
        <path class="cls-5" d="M124.72,50.71a3.22,3.22,0,0,0,.65,1.48"/>
        <path class="cls-5" d="M127.14,54.2a3.17,3.17,0,0,0,1.4.81"/>
        <path class="cls-5" d="M114.82,62.61a3.13,3.13,0,0,0,1.51.56"/>
        <path class="cls-5" d="M127.48,57.48a3.19,3.19,0,0,0,1.42.77"/>
        <path class="cls-5" d="M115.58,54.47a3.39,3.39,0,0,0,.63,1.49"/>
        <path class="cls-5" d="M111.71,60.23a3.28,3.28,0,0,0,1,1.29"/>
        <path class="cls-5" d="M119.55,63.58a3.18,3.18,0,0,0,1.41.79"/>
        <path class="cls-5" d="M115.39,57.55a3.26,3.26,0,0,0,1,1.23"/>
        <path class="cls-5" d="M119.05,66.77a3.18,3.18,0,0,0,1.54.47"/>
        <path class="cls-5" d="M113.86,65.14a3.31,3.31,0,0,0,1.24,1"/>
      </g>
      <g>
        <path class="cls-4" d="M143.17,62.53c-2.25,5.62-7.45,8.83-11.61,7.17s-6.93-8.23-3.47-13.2a36.33,36.33,0,0,1,2.78-3.57c2.8-3.15,5.71-4.85,8.84-3.6C143.87,51,145.42,56.91,143.17,62.53Z"/>
        <path class="cls-5" d="M133,52.33a3.21,3.21,0,0,0,.52,1.54"/>
        <path class="cls-5" d="M138.56,60.84a3.24,3.24,0,0,0,1.58.34"/>
        <path class="cls-5" d="M133.88,61.8a3.28,3.28,0,0,0,1.62-.1"/>
        <path class="cls-5" d="M139.55,64a3.23,3.23,0,0,0,1.61-.1"/>
        <path class="cls-5" d="M138.26,58a3.22,3.22,0,0,0,1.61.15"/>
        <path class="cls-5" d="M137,55.29a3.22,3.22,0,0,0,1.61.15"/>
        <path class="cls-5" d="M133.3,56.49a3.26,3.26,0,0,0,1.1,1.19"/>
        <path class="cls-5" d="M136.6,50.58a3.28,3.28,0,0,0,1.09,1.19"/>
        <path class="cls-5" d="M140,53.11a3.21,3.21,0,0,0,1.58.32"/>
        <path class="cls-5" d="M131.06,65a3.24,3.24,0,0,0,1.62,0"/>
        <path class="cls-5" d="M141.39,56.1a3.31,3.31,0,0,0,1.6.27"/>
        <path class="cls-5" d="M129.16,57.08a3.28,3.28,0,0,0,1.08,1.21"/>
        <path class="cls-5" d="M127.35,63.78a3.12,3.12,0,0,0,1.33.91"/>
        <path class="cls-5" d="M135.85,64.43a3.16,3.16,0,0,0,1.59.29"/>
        <path class="cls-5" d="M130,60.06a3.24,3.24,0,0,0,1.38.84"/>
        <path class="cls-5" d="M136.4,67.61a3.23,3.23,0,0,0,1.62,0"/>
        <path class="cls-5" d="M131,67.74a3.25,3.25,0,0,0,1.51.59"/>
      </g>
      <g>
        <path class="cls-4" d="M39.84,168.56c-2.25,5.62-7.45,8.83-11.61,7.16s-6.93-8.23-3.47-13.2A40.67,40.67,0,0,1,27.53,159c2.81-3.14,5.72-4.84,8.84-3.59C40.54,157,42.09,162.93,39.84,168.56Z"/>
        <path class="cls-5" d="M29.68,158.36a3.32,3.32,0,0,0,.52,1.53"/>
        <path class="cls-5" d="M35.22,166.87a3.29,3.29,0,0,0,1.59.34"/>
        <path class="cls-5" d="M30.55,167.83a3.29,3.29,0,0,0,1.61-.11"/>
        <path class="cls-5" d="M36.21,170a3.28,3.28,0,0,0,1.62-.1"/>
        <path class="cls-5" d="M34.92,164a3.22,3.22,0,0,0,1.61.15"/>
        <path class="cls-5" d="M33.65,161.32a3.22,3.22,0,0,0,1.61.15"/>
        <path class="cls-5" d="M30,162.51a3.18,3.18,0,0,0,1.09,1.19"/>
        <path class="cls-5" d="M33.26,156.61a3.26,3.26,0,0,0,1.1,1.19"/>
        <path class="cls-5" d="M36.68,159.14a3.32,3.32,0,0,0,1.59.31"/>
        <path class="cls-5" d="M27.72,171.07a3.23,3.23,0,0,0,1.62,0"/>
        <path class="cls-5" d="M38.06,162.13a3.23,3.23,0,0,0,1.6.26"/>
        <path class="cls-5" d="M25.83,163.11a3.22,3.22,0,0,0,1.07,1.2"/>
        <path class="cls-5" d="M24,169.81a3.31,3.31,0,0,0,1.34.91"/>
        <path class="cls-5" d="M32.52,170.46a3.29,3.29,0,0,0,1.59.29"/>
        <path class="cls-5" d="M26.64,166.09a3.28,3.28,0,0,0,1.38.83"/>
        <path class="cls-5" d="M33.07,173.64a3.25,3.25,0,0,0,1.62,0"/>
        <path class="cls-5" d="M27.64,173.77a3.26,3.26,0,0,0,1.51.58"/>
      </g>
      <g>
        <path class="cls-4" d="M70.63,54.05c.72,6,4.92,10.45,9.38,9.91s8.81-6.16,6.74-11.86A37.72,37.72,0,0,0,85,47.94c-1.9-3.76-4.28-6.15-7.62-5.75C72.92,42.73,69.9,48,70.63,54.05Z"/>
        <path class="cls-5" d="M83.07,46.81a3.21,3.21,0,0,1-.9,1.35"/>
        <path class="cls-5" d="M75.52,53.61a3.24,3.24,0,0,1-1.61-.08"/>
        <path class="cls-5" d="M79.79,55.74a3.2,3.2,0,0,1-1.53-.52"/>
        <path class="cls-5" d="M73.75,56.41a3.25,3.25,0,0,1-1.53-.51"/>
        <path class="cls-5" d="M76.54,51A3.27,3.27,0,0,1,75,50.68"/>
        <path class="cls-5" d="M78.47,48.65a3.33,3.33,0,0,1-1.6-.27"/>
        <path class="cls-5" d="M81.72,50.75a3.14,3.14,0,0,1-1.36.87"/>
        <path class="cls-5" d="M80.06,44.2a3.32,3.32,0,0,1-1.37.87"/>
        <path class="cls-5" d="M76.1,45.76a3.23,3.23,0,0,1-1.61-.1"/>
        <path class="cls-5" d="M81.69,59.6a3.26,3.26,0,0,1-1.58-.38"/>
        <path class="cls-5" d="M74,48.3a3.22,3.22,0,0,1-1.61-.16"/>
        <path class="cls-5" d="M85.57,52.39a3.32,3.32,0,0,1-1.35.89"/>
        <path class="cls-5" d="M85.6,59.34a3.24,3.24,0,0,1-1.53.53"/>
        <path class="cls-5" d="M77.21,57.78a3.29,3.29,0,0,1-1.61-.13"/>
        <path class="cls-5" d="M84,55.06a3.2,3.2,0,0,1-1.55.45"/>
        <path class="cls-5" d="M75.86,60.7a3.29,3.29,0,0,1-1.55-.46"/>
        <path class="cls-5" d="M81.08,62.23a3.32,3.32,0,0,1-1.61.18"/>
      </g>
      <g>
        <path class="cls-4" d="M84.42,70.27c-2.48,5.52-1.17,11.49,2.93,13.32s10.73-.74,11.89-6.69a39.08,39.08,0,0,0,.64-4.47c.3-4.21-.5-7.48-3.57-8.86C92.22,61.74,86.89,64.74,84.42,70.27Z"/>
        <path class="cls-5" d="M98.81,70.47a3.24,3.24,0,0,1-1.47.69"/>
        <path class="cls-5" d="M88.84,72.4a3.33,3.33,0,0,1-1.35-.89"/>
        <path class="cls-5" d="M91.4,76.43a3.26,3.26,0,0,1-1.05-1.23"/>
        <path class="cls-5" d="M85.88,73.9a3.22,3.22,0,0,1-1-1.23"/>
        <path class="cls-5" d="M91.08,70.65a3.23,3.23,0,0,1-1.23-1.05"/>
        <path class="cls-5" d="M93.92,69.68a3.3,3.3,0,0,1-1.23-1.06"/>
        <path class="cls-5" d="M95.62,73.15a3.19,3.19,0,0,1-1.61,0"/>
        <path class="cls-5" d="M97.58,66.68a3.23,3.23,0,0,1-1.62,0"/>
        <path class="cls-5" d="M93.38,66a3.17,3.17,0,0,1-1.33-.92"/>
        <path class="cls-5" d="M91,80.72a3.21,3.21,0,0,1-1.15-1.14"/>
        <path class="cls-5" d="M90.27,67.07a3.29,3.29,0,0,1-1.3-1"/>
        <path class="cls-5" d="M98.08,76.54a3.33,3.33,0,0,1-1.62.07"/>
        <path class="cls-5" d="M94.53,82.51a3.24,3.24,0,0,1-1.59-.33"/>
        <path class="cls-5" d="M88.14,76.85a3.24,3.24,0,0,1-1.31-.94"/>
        <path class="cls-5" d="M95.38,78a3.28,3.28,0,0,1-1.57-.41"/>
        <path class="cls-5" d="M85.48,78.66a3.25,3.25,0,0,1-1.1-1.19"/>
        <path class="cls-5" d="M89.16,82.65A3.29,3.29,0,0,1,87.69,82"/>
      </g>
      <g>
        <path class="cls-4" d="M83.52,54.3c-2.47,5.53-1.16,11.5,2.93,13.33s10.73-.75,11.89-6.69A37.41,37.41,0,0,0,99,56.46c.31-4.2-.5-7.48-3.57-8.85C91.32,45.78,86,48.77,83.52,54.3Z"/>
        <path class="cls-5" d="M97.91,54.5a3.19,3.19,0,0,1-1.46.69"/>
        <path class="cls-5" d="M88,56.44a3.21,3.21,0,0,1-1.35-.9"/>
        <path class="cls-5" d="M90.51,60.47a3.22,3.22,0,0,1-1.05-1.23"/>
        <path class="cls-5" d="M85,57.94a3.32,3.32,0,0,1-1-1.24"/>
        <path class="cls-5" d="M90.19,54.69a3.23,3.23,0,0,1-1.23-1"/>
        <path class="cls-5" d="M93,53.71a3.23,3.23,0,0,1-1.23-1.05"/>
        <path class="cls-5" d="M94.73,57.19a3.24,3.24,0,0,1-1.62,0"/>
        <path class="cls-5" d="M96.68,50.71a3.24,3.24,0,0,1-1.62,0"/>
        <path class="cls-5" d="M92.49,50a3.24,3.24,0,0,1-1.33-.93"/>
        <path class="cls-5" d="M90.15,64.75A3.32,3.32,0,0,1,89,63.62"/>
        <path class="cls-5" d="M89.38,51.11a3.26,3.26,0,0,1-1.3-1"/>
        <path class="cls-5" d="M97.18,60.57a3.15,3.15,0,0,1-1.61.07"/>
        <path class="cls-5" d="M93.63,66.54a3.18,3.18,0,0,1-1.58-.33"/>
        <path class="cls-5" d="M87.25,60.88a3.23,3.23,0,0,1-1.32-.94"/>
        <path class="cls-5" d="M94.48,62.07a3.28,3.28,0,0,1-1.56-.42"/>
        <path class="cls-5" d="M84.58,62.7a3.26,3.26,0,0,1-1.09-1.2"/>
        <path class="cls-5" d="M88.27,66.69A3.24,3.24,0,0,1,86.8,66"/>
      </g>
      <path class="cls-4" d="M112,40.52c3.12-1.25,6,.45,8.84,3.59a38.84,38.84,0,0,1,2.77,3.57c3.46,5,.7,11.53-3.47,13.2s-9.36-1.54-11.61-7.17S107.78,42.18,112,40.52Zm6.17,4.53a3.32,3.32,0,0,0,.52-1.53m-7.13,8.85A3.22,3.22,0,0,0,113.1,52m3.06.86a3.23,3.23,0,0,0,1.61.1m-7.28,2.11a3.28,3.28,0,0,0,1.62.1m-.32-5.84a3.3,3.3,0,0,0,1.61-.16m-.34-2.56a3.22,3.22,0,0,0,1.61-.15m2.59,2.38a3.18,3.18,0,0,0,1.09-1.19M114,43a3.16,3.16,0,0,0,1.1-1.19m-5,2.85a3.26,3.26,0,0,0,1.59-.32m7.34,12a3.31,3.31,0,0,0,1.62-.05m-11.94-8.67a3.23,3.23,0,0,0,1.6-.26m11.16,2.18a3.2,3.2,0,0,0,1.07-1.21m.48,7.62a3.31,3.31,0,0,0,1.34-.91m-10.1.94a3.29,3.29,0,0,0,1.59-.29m4.5-3.54a3.3,3.3,0,0,0,1.39-.84m-8.06,7.51a3.39,3.39,0,0,0,1.62,0m3.92.71a3.22,3.22,0,0,0,1.51-.59"/>
      <g>
        <path class="cls-4" d="M82.75,43.55c-2.47,5.53-1.16,11.5,2.93,13.33s10.73-.75,11.89-6.69a37.13,37.13,0,0,0,.64-4.48c.31-4.2-.5-7.47-3.57-8.85C90.55,35,85.22,38,82.75,43.55Z"/>
        <path class="cls-5" d="M97.14,43.76a3.37,3.37,0,0,1-1.46.69"/>
        <path class="cls-5" d="M87.17,45.69a3.21,3.21,0,0,1-1.34-.9"/>
        <path class="cls-5" d="M89.74,49.72a3.22,3.22,0,0,1-1-1.23"/>
        <path class="cls-5" d="M84.21,47.19a3.34,3.34,0,0,1-1-1.23"/>
        <path class="cls-5" d="M89.42,43.94a3.23,3.23,0,0,1-1.23-1"/>
        <path class="cls-5" d="M92.25,43A3.23,3.23,0,0,1,91,41.91"/>
        <path class="cls-5" d="M94,46.44a3.24,3.24,0,0,1-1.62,0"/>
        <path class="cls-5" d="M95.91,40a3.38,3.38,0,0,1-1.62,0"/>
        <path class="cls-5" d="M91.71,39.27a3.37,3.37,0,0,1-1.33-.92"/>
        <path class="cls-5" d="M89.37,54a3.23,3.23,0,0,1-1.15-1.13"/>
        <path class="cls-5" d="M88.61,40.36a3.28,3.28,0,0,1-1.31-1"/>
        <path class="cls-5" d="M96.41,49.83a3.21,3.21,0,0,1-1.61.06"/>
        <path class="cls-5" d="M92.86,55.79a3.31,3.31,0,0,1-1.59-.32"/>
        <path class="cls-5" d="M86.48,50.14a3.2,3.2,0,0,1-1.32-1"/>
        <path class="cls-5" d="M93.71,51.32a3.21,3.21,0,0,1-1.56-.41"/>
        <path class="cls-5" d="M83.81,52a3.26,3.26,0,0,1-1.09-1.2"/>
        <path class="cls-5" d="M87.49,55.94A3.29,3.29,0,0,1,86,55.27"/>
      </g>
      <g>
        <path class="cls-4" d="M124.67,72.39c-2.25,5.63-7.45,8.83-11.61,7.17s-6.93-8.23-3.47-13.2a40.67,40.67,0,0,1,2.77-3.57c2.81-3.15,5.72-4.85,8.84-3.6C125.37,60.86,126.92,66.77,124.67,72.39Z"/>
        <path class="cls-5" d="M114.51,62.2a3.27,3.27,0,0,0,.53,1.53"/>
        <path class="cls-5" d="M120.06,70.7a3.24,3.24,0,0,0,1.58.34"/>
        <path class="cls-5" d="M115.38,71.66a3.23,3.23,0,0,0,1.61-.1"/>
        <path class="cls-5" d="M121,73.87a3.28,3.28,0,0,0,1.62-.1"/>
        <path class="cls-5" d="M119.75,67.87a3.22,3.22,0,0,0,1.61.15"/>
        <path class="cls-5" d="M118.48,65.15a3.3,3.3,0,0,0,1.61.16"/>
        <path class="cls-5" d="M114.8,66.35a3.28,3.28,0,0,0,1.09,1.19"/>
        <path class="cls-5" d="M118.09,60.44a3.25,3.25,0,0,0,1.1,1.19"/>
        <path class="cls-5" d="M121.51,63a3.26,3.26,0,0,0,1.59.32"/>
        <path class="cls-5" d="M112.56,74.9a3.19,3.19,0,0,0,1.61,0"/>
        <path class="cls-5" d="M122.89,66a3.31,3.31,0,0,0,1.6.27"/>
        <path class="cls-5" d="M110.66,66.94a3.28,3.28,0,0,0,1.08,1.21"/>
        <path class="cls-5" d="M108.84,73.65a3.31,3.31,0,0,0,1.34.91"/>
        <path class="cls-5" d="M117.35,74.3a3.29,3.29,0,0,0,1.59.29"/>
        <path class="cls-5" d="M111.47,69.92a3.24,3.24,0,0,0,1.38.84"/>
        <path class="cls-5" d="M117.9,77.47a3.23,3.23,0,0,0,1.62,0"/>
        <path class="cls-5" d="M112.47,77.6a3.25,3.25,0,0,0,1.51.59"/>
      </g>
      <g>
        <path class="cls-4" d="M110.16,55.18c-2.25,5.63-7.45,8.84-11.61,7.17s-6.93-8.23-3.47-13.2a40.67,40.67,0,0,1,2.77-3.57c2.81-3.15,5.72-4.84,8.84-3.59C110.86,43.65,112.41,49.56,110.16,55.18Z"/>
        <path class="cls-5" d="M100,45a3.32,3.32,0,0,0,.52,1.53"/>
        <path class="cls-5" d="M105.55,53.49a3.33,3.33,0,0,0,1.58.35"/>
        <path class="cls-5" d="M100.87,54.45a3.23,3.23,0,0,0,1.61-.1"/>
        <path class="cls-5" d="M106.53,56.66a3.28,3.28,0,0,0,1.62-.1"/>
        <path class="cls-5" d="M105.24,50.66a3.3,3.3,0,0,0,1.61.16"/>
        <path class="cls-5" d="M104,48a3.37,3.37,0,0,0,1.61.15"/>
        <path class="cls-5" d="M100.29,49.14a3.28,3.28,0,0,0,1.09,1.19"/>
        <path class="cls-5" d="M103.58,43.23a3.16,3.16,0,0,0,1.1,1.19"/>
        <path class="cls-5" d="M107,45.76a3.26,3.26,0,0,0,1.59.32"/>
        <path class="cls-5" d="M98.05,57.69a3.27,3.27,0,0,0,1.61.05"/>
        <path class="cls-5" d="M108.38,48.75A3.17,3.17,0,0,0,110,49"/>
        <path class="cls-5" d="M96.15,49.73a3.31,3.31,0,0,0,1.07,1.21"/>
        <path class="cls-5" d="M94.33,56.44a3.31,3.31,0,0,0,1.34.91"/>
        <path class="cls-5" d="M102.84,57.09a3.29,3.29,0,0,0,1.59.29"/>
        <path class="cls-5" d="M97,52.71a3.24,3.24,0,0,0,1.38.84"/>
        <path class="cls-5" d="M103.39,60.26a3.3,3.3,0,0,0,1.62,0"/>
        <path class="cls-5" d="M98,60.39a3.25,3.25,0,0,0,1.51.59"/>
      </g>
      <g>
        <path class="cls-4" d="M112.84,62.2c-2.25,5.63-7.45,8.83-11.61,7.17s-6.93-8.23-3.47-13.2a40.67,40.67,0,0,1,2.77-3.57c2.81-3.15,5.72-4.84,8.84-3.6C113.54,50.67,115.09,56.58,112.84,62.2Z"/>
        <path class="cls-5" d="M102.68,52a3.32,3.32,0,0,0,.52,1.53"/>
        <path class="cls-5" d="M108.23,60.51a3.24,3.24,0,0,0,1.58.34"/>
        <path class="cls-5" d="M103.55,61.47a3.23,3.23,0,0,0,1.61-.1"/>
        <path class="cls-5" d="M109.21,63.68a3.28,3.28,0,0,0,1.62-.1"/>
        <path class="cls-5" d="M107.92,57.68a3.22,3.22,0,0,0,1.61.15"/>
        <path class="cls-5" d="M106.65,55a3.3,3.3,0,0,0,1.61.16"/>
        <path class="cls-5" d="M103,56.16a3.28,3.28,0,0,0,1.09,1.19"/>
        <path class="cls-5" d="M106.26,50.25a3.16,3.16,0,0,0,1.1,1.19"/>
        <path class="cls-5" d="M109.68,52.78a3.26,3.26,0,0,0,1.59.32"/>
        <path class="cls-5" d="M100.72,64.71a3.23,3.23,0,0,0,1.62,0"/>
        <path class="cls-5" d="M111.06,55.77a3.31,3.31,0,0,0,1.6.27"/>
        <path class="cls-5" d="M98.83,56.75A3.31,3.31,0,0,0,99.9,58"/>
        <path class="cls-5" d="M97,63.46a3.31,3.31,0,0,0,1.34.91"/>
        <path class="cls-5" d="M105.52,64.11a3.29,3.29,0,0,0,1.59.29"/>
        <path class="cls-5" d="M99.64,59.73a3.24,3.24,0,0,0,1.38.84"/>
        <path class="cls-5" d="M106.07,67.28a3.23,3.23,0,0,0,1.62,0"/>
        <path class="cls-5" d="M100.64,67.41a3.22,3.22,0,0,0,1.51.59"/>
      </g>
      <g>
        <path class="cls-4" d="M112,74.61c-.86,6-5.16,10.34-9.59,9.7s-8.68-6.36-6.49-12a38.74,38.74,0,0,1,1.86-4.12c2-3.72,4.41-6.06,7.74-5.58C109.91,63.24,112.81,68.61,112,74.61Z"/>
        <path class="cls-5" d="M99.68,67.1a3.22,3.22,0,0,0,.86,1.36"/>
        <path class="cls-5" d="M107.07,74.05a3.19,3.19,0,0,0,1.62,0"/>
        <path class="cls-5" d="M102.75,76.09a3.25,3.25,0,0,0,1.55-.48"/>
        <path class="cls-5" d="M108.77,76.9a3.25,3.25,0,0,0,1.55-.48"/>
        <path class="cls-5" d="M106.11,71.38a3.26,3.26,0,0,0,1.6-.24"/>
        <path class="cls-5" d="M104.23,69a3.19,3.19,0,0,0,1.6-.23"/>
        <path class="cls-5" d="M100.93,71.06a3.22,3.22,0,0,0,1.35.9"/>
        <path class="cls-5" d="M102.74,64.55a3.34,3.34,0,0,0,1.35.9"/>
        <path class="cls-5" d="M106.66,66.2a3.22,3.22,0,0,0,1.62-.07"/>
        <path class="cls-5" d="M100.77,79.91a3.19,3.19,0,0,0,1.58-.35"/>
        <path class="cls-5" d="M108.71,68.78a3.22,3.22,0,0,0,1.61-.12"/>
        <path class="cls-5" d="M97.05,72.62a3.33,3.33,0,0,0,1.33.92"/>
        <path class="cls-5" d="M96.87,79.56a3.21,3.21,0,0,0,1.51.57"/>
        <path class="cls-5" d="M105.29,78.19a3.23,3.23,0,0,0,1.61-.1"/>
        <path class="cls-5" d="M98.54,75.32a3.22,3.22,0,0,0,1.54.49"/>
        <path class="cls-5" d="M106.57,81.14a3.22,3.22,0,0,0,1.56-.43"/>
        <path class="cls-5" d="M101.32,82.55a3.28,3.28,0,0,0,1.61.21"/>
      </g>
      <g>
        <path class="cls-4" d="M48.33,72.28c2.25,5.62,7.45,8.83,11.61,7.16s6.93-8.22,3.47-13.19a37.75,37.75,0,0,0-2.78-3.58c-2.8-3.14-5.71-4.84-8.84-3.59C47.63,60.75,46.08,66.66,48.33,72.28Z"/>
        <path class="cls-5" d="M58.48,62.08A3.14,3.14,0,0,1,58,63.61"/>
        <path class="cls-5" d="M52.94,70.59a3.24,3.24,0,0,1-1.58.34"/>
        <path class="cls-5" d="M57.62,71.55a3.28,3.28,0,0,1-1.62-.1"/>
        <path class="cls-5" d="M52,73.76a3.26,3.26,0,0,1-1.62-.1"/>
        <path class="cls-5" d="M53.25,67.76a3.26,3.26,0,0,1-1.62.15"/>
        <path class="cls-5" d="M54.52,65a3.22,3.22,0,0,1-1.61.15"/>
        <path class="cls-5" d="M58.2,66.24a3.26,3.26,0,0,1-1.1,1.19"/>
        <path class="cls-5" d="M54.91,60.33a3.36,3.36,0,0,1-1.1,1.19"/>
        <path class="cls-5" d="M51.49,62.86a3.32,3.32,0,0,1-1.59.31"/>
        <path class="cls-5" d="M60.44,74.79a3.19,3.19,0,0,1-1.61,0"/>
        <path class="cls-5" d="M50.11,65.85a3.31,3.31,0,0,1-1.6.27"/>
        <path class="cls-5" d="M62.34,66.83A3.28,3.28,0,0,1,61.26,68"/>
        <path class="cls-5" d="M64.15,73.53a3.24,3.24,0,0,1-1.33.91"/>
        <path class="cls-5" d="M55.65,74.18a3.15,3.15,0,0,1-1.59.29"/>
        <path class="cls-5" d="M61.53,69.81a3.16,3.16,0,0,1-1.38.83"/>
        <path class="cls-5" d="M55.1,77.36a3.23,3.23,0,0,1-1.62,0"/>
        <path class="cls-5" d="M60.53,77.49a3.39,3.39,0,0,1-1.51.59"/>
      </g>
      <g>
        <path class="cls-4" d="M46.25,61.78C48.5,67.41,53.7,70.62,57.86,69s6.93-8.23,3.47-13.2a40.67,40.67,0,0,0-2.77-3.57c-2.81-3.14-5.72-4.84-8.84-3.59C45.55,50.25,44,56.16,46.25,61.78Z"/>
        <path class="cls-5" d="M56.41,51.59a3.27,3.27,0,0,1-.53,1.53"/>
        <path class="cls-5" d="M50.86,60.09a3.33,3.33,0,0,1-1.58.35"/>
        <path class="cls-5" d="M55.54,61.05a3.23,3.23,0,0,1-1.61-.1"/>
        <path class="cls-5" d="M49.88,63.26a3.28,3.28,0,0,1-1.62-.1"/>
        <path class="cls-5" d="M51.17,57.26a3.3,3.3,0,0,1-1.61.16"/>
        <path class="cls-5" d="M52.44,54.55a3.37,3.37,0,0,1-1.61.15"/>
        <path class="cls-5" d="M56.12,55.74A3.28,3.28,0,0,1,55,56.93"/>
        <path class="cls-5" d="M52.83,49.83A3.25,3.25,0,0,1,51.73,51"/>
        <path class="cls-5" d="M49.41,52.36a3.26,3.26,0,0,1-1.59.32"/>
        <path class="cls-5" d="M58.36,64.29a3.27,3.27,0,0,1-1.61,0"/>
        <path class="cls-5" d="M48,55.35a3.17,3.17,0,0,1-1.6.27"/>
        <path class="cls-5" d="M60.26,56.33a3.18,3.18,0,0,1-1.08,1.21"/>
        <path class="cls-5" d="M62.08,63a3.31,3.31,0,0,1-1.34.91"/>
        <path class="cls-5" d="M53.57,63.69A3.29,3.29,0,0,1,52,64"/>
        <path class="cls-5" d="M59.45,59.31a3.24,3.24,0,0,1-1.38.84"/>
        <path class="cls-5" d="M53,66.86a3.3,3.3,0,0,1-1.62,0"/>
        <path class="cls-5" d="M58.45,67a3.25,3.25,0,0,1-1.51.59"/>
      </g>
      <g>
        <path class="cls-4" d="M56.32,52.56c.72,6,4.92,10.45,9.37,9.91s8.81-6.16,6.75-11.86a39.74,39.74,0,0,0-1.76-4.16c-1.9-3.76-4.28-6.15-7.62-5.75C58.61,41.24,55.59,46.55,56.32,52.56Z"/>
        <path class="cls-5" d="M68.75,45.32a3.24,3.24,0,0,1-.89,1.35"/>
        <path class="cls-5" d="M61.21,52.12A3.29,3.29,0,0,1,59.59,52"/>
        <path class="cls-5" d="M65.48,54.25A3.2,3.2,0,0,1,64,53.73"/>
        <path class="cls-5" d="M59.44,54.92a3.25,3.25,0,0,1-1.53-.51"/>
        <path class="cls-5" d="M62.23,49.46a3.27,3.27,0,0,1-1.59-.27"/>
        <path class="cls-5" d="M64.16,47.16a3.29,3.29,0,0,1-1.6-.27"/>
        <path class="cls-5" d="M67.41,49.26a3.2,3.2,0,0,1-1.36.87"/>
        <path class="cls-5" d="M65.75,42.71a3.32,3.32,0,0,1-1.37.87"/>
        <path class="cls-5" d="M61.79,44.27a3.23,3.23,0,0,1-1.61-.1"/>
        <path class="cls-5" d="M67.38,58.11a3.26,3.26,0,0,1-1.58-.38"/>
        <path class="cls-5" d="M59.69,46.81a3.19,3.19,0,0,1-1.61-.16"/>
        <path class="cls-5" d="M71.26,50.9a3.32,3.32,0,0,1-1.35.89"/>
        <path class="cls-5" d="M71.29,57.85a3.24,3.24,0,0,1-1.53.53"/>
        <path class="cls-5" d="M62.9,56.29a3.29,3.29,0,0,1-1.61-.13"/>
        <path class="cls-5" d="M69.71,53.57a3.2,3.2,0,0,1-1.55.45"/>
        <path class="cls-5" d="M61.55,59.21A3.24,3.24,0,0,1,60,58.75"/>
        <path class="cls-5" d="M66.76,60.74a3.2,3.2,0,0,1-1.6.17"/>
      </g>
      <g>
        <path class="cls-4" d="M62,68.17c.73,6,4.92,10.45,9.38,9.91s8.81-6.16,6.74-11.86a35.89,35.89,0,0,0-1.76-4.16c-1.9-3.76-4.28-6.16-7.62-5.75C64.31,56.85,61.29,62.16,62,68.17Z"/>
        <path class="cls-5" d="M74.46,60.93a3.3,3.3,0,0,1-.9,1.35"/>
        <path class="cls-5" d="M66.91,67.72a3.17,3.17,0,0,1-1.61-.07"/>
        <path class="cls-5" d="M71.18,69.85a3.25,3.25,0,0,1-1.53-.51"/>
        <path class="cls-5" d="M65.14,70.53A3.25,3.25,0,0,1,63.61,70"/>
        <path class="cls-5" d="M67.93,65.07a3.27,3.27,0,0,1-1.59-.27"/>
        <path class="cls-5" d="M69.86,62.77a3.27,3.27,0,0,1-1.59-.27"/>
        <path class="cls-5" d="M73.11,64.87a3.26,3.26,0,0,1-1.36.87"/>
        <path class="cls-5" d="M71.45,58.31a3.2,3.2,0,0,1-1.36.87"/>
        <path class="cls-5" d="M67.49,59.88a3.23,3.23,0,0,1-1.61-.1"/>
        <path class="cls-5" d="M73.08,73.71a3.26,3.26,0,0,1-1.57-.37"/>
        <path class="cls-5" d="M65.39,62.41a3.28,3.28,0,0,1-1.61-.15"/>
        <path class="cls-5" d="M77,66.51a3.32,3.32,0,0,1-1.35.89"/>
        <path class="cls-5" d="M77,73.45a3.3,3.3,0,0,1-1.53.54"/>
        <path class="cls-5" d="M68.6,71.89A3.15,3.15,0,0,1,67,71.76"/>
        <path class="cls-5" d="M75.41,69.18a3.2,3.2,0,0,1-1.55.45"/>
        <path class="cls-5" d="M67.25,74.82a3.29,3.29,0,0,1-1.55-.46"/>
        <path class="cls-5" d="M72.47,76.34a3.19,3.19,0,0,1-1.61.18"/>
      </g>
      <g>
        <path class="cls-4" d="M74,62.5c.72,6,4.92,10.45,9.37,9.91s8.81-6.17,6.75-11.86a38.85,38.85,0,0,0-1.76-4.16c-1.9-3.77-4.28-6.16-7.62-5.75C76.3,51.18,73.28,56.49,74,62.5Z"/>
        <path class="cls-5" d="M86.44,55.26a3.33,3.33,0,0,1-.89,1.35"/>
        <path class="cls-5" d="M78.9,62.05A3.22,3.22,0,0,1,77.28,62"/>
        <path class="cls-5" d="M83.17,64.18a3.25,3.25,0,0,1-1.53-.51"/>
        <path class="cls-5" d="M77.13,64.86a3.25,3.25,0,0,1-1.53-.51"/>
        <path class="cls-5" d="M79.92,59.4a3.33,3.33,0,0,1-1.6-.27"/>
        <path class="cls-5" d="M81.85,57.1a3.29,3.29,0,0,1-1.6-.27"/>
        <path class="cls-5" d="M85.1,59.2a3.32,3.32,0,0,1-1.36.87"/>
        <path class="cls-5" d="M83.44,52.64a3.2,3.2,0,0,1-1.37.87"/>
        <path class="cls-5" d="M79.48,54.21a3.16,3.16,0,0,1-1.61-.11"/>
        <path class="cls-5" d="M85.07,68a3.33,3.33,0,0,1-1.58-.37"/>
        <path class="cls-5" d="M77.38,56.74a3.26,3.26,0,0,1-1.61-.15"/>
        <path class="cls-5" d="M89,60.84a3.32,3.32,0,0,1-1.35.89"/>
        <path class="cls-5" d="M89,67.78a3.33,3.33,0,0,1-1.53.54"/>
        <path class="cls-5" d="M80.59,66.22A3.15,3.15,0,0,1,79,66.09"/>
        <path class="cls-5" d="M87.4,63.51a3.2,3.2,0,0,1-1.55.45"/>
        <path class="cls-5" d="M79.24,69.15a3.24,3.24,0,0,1-1.55-.46"/>
        <path class="cls-5" d="M84.45,70.67a3.15,3.15,0,0,1-1.6.18"/>
      </g>
      <g>
        <path class="cls-4" d="M35.64,164.54c.72,6,4.92,10.45,9.37,9.92s8.81-6.17,6.75-11.87A39.74,39.74,0,0,0,50,158.43c-1.9-3.76-4.28-6.15-7.62-5.75C37.93,153.22,34.91,158.53,35.64,164.54Z"/>
        <path class="cls-5" d="M48.08,157.3a3.31,3.31,0,0,1-.9,1.35"/>
        <path class="cls-5" d="M40.53,164.1a3.29,3.29,0,0,1-1.62-.08"/>
        <path class="cls-5" d="M44.8,166.23a3.25,3.25,0,0,1-1.53-.51"/>
        <path class="cls-5" d="M38.76,166.91a3.32,3.32,0,0,1-1.53-.52"/>
        <path class="cls-5" d="M41.55,161.44a3.27,3.27,0,0,1-1.59-.27"/>
        <path class="cls-5" d="M43.48,159.14a3.2,3.2,0,0,1-1.6-.27"/>
        <path class="cls-5" d="M46.73,161.24a3.2,3.2,0,0,1-1.36.87"/>
        <path class="cls-5" d="M45.07,154.69a3.32,3.32,0,0,1-1.37.87"/>
        <path class="cls-5" d="M41.11,156.25a3.23,3.23,0,0,1-1.61-.1"/>
        <path class="cls-5" d="M46.7,170.09a3.26,3.26,0,0,1-1.58-.38"/>
        <path class="cls-5" d="M39,158.79a3.19,3.19,0,0,1-1.61-.16"/>
        <path class="cls-5" d="M50.58,162.88a3.19,3.19,0,0,1-1.35.89"/>
        <path class="cls-5" d="M50.61,169.83a3.24,3.24,0,0,1-1.53.53"/>
        <path class="cls-5" d="M42.22,168.27a3.29,3.29,0,0,1-1.61-.13"/>
        <path class="cls-5" d="M49,165.55a3.2,3.2,0,0,1-1.55.45"/>
        <path class="cls-5" d="M40.87,171.2a3.31,3.31,0,0,1-1.55-.47"/>
        <path class="cls-5" d="M46.09,172.72a3.32,3.32,0,0,1-1.61.18"/>
      </g>
      <path class="cls-3" d="M76.71,89.25c0,7.09-22.79,2.58-29.54,2.58S41.7,86.09,41.7,79,39.22,63.08,46,63.08,76.71,82.17,76.71,89.25Z"/>
      <path class="cls-3" d="M150.59,88.05c0,4.16-17.45,3.78-31.54,3.78s-19.47-2-19.47-6.13S119.91,69.28,134,69.28,150.59,83.88,150.59,88.05Z"/>
      <path class="cls-3" d="M148.39,80.56c-1.94,5-10.15-2.16-10.15-2.16-2.86-.79-12.07,4.8-10.13-.24s15.29-21.89,18.14-21.11S150.33,75.52,148.39,80.56Z"/>
      <path class="cls-6" d="M41.28,145.17s4,8.93,9,9.22"/>
      <path class="cls-6" d="M151.53,135.18s-1.74,7.28-7,8.83"/>
      <path class="cls-6" d="M150.46,125.6a9.38,9.38,0,0,1-5.91,6.79"/>
      <path class="cls-6" d="M43.65,111.15s2.68,5.08,5.28,5.17"/>
      <path class="cls-6" d="M44.94,107.94a3,3,0,0,0,2.7,2.54"/>
      <path class="cls-6" d="M108.66,164s-8.23-.89-11-3.72"/>
      <path class="cls-3" d="M103.66,84.77c0,4.92-19.26,8.47-25.07,8.47s-35.14-17-35.14-21.9,21-4,26.78-4S103.66,79.86,103.66,84.77Z"/>
      <path class="cls-3" d="M141.75,90.71c0,2.71-41.2,4.91-47.93,4.91s-29.3-2.2-29.3-4.91,22.58-4.9,29.3-4.9S141.75,88,141.75,90.71Z"/>
      <path class="cls-3" d="M73,82.35c0,5.76,26,10.43,35,10.43s30.24-8.62,30.24-14.38S117,71.92,108,71.92,73,76.59,73,82.35Z"/>
      <path class="cls-3" d="M52.23,81.63c0,2.84-6.12-12.41-6.46-10.85-1.54,7-3.4-2.3-3.4-5.14s1.52-9.08,3.4-9.08S52.23,78.8,52.23,81.63Z"/>
      <g>
        <path class="cls-7" d="M54.45,119.38h4a8.54,8.54,0,0,1,2.2.25,2.4,2.4,0,0,1,1.41,1.06,3.29,3.29,0,0,1,.52,1.83,3,3,0,0,1-1,2.47,4.63,4.63,0,0,1-3,.84h-2.7v4.29H54.45Zm1.41,5.17h2.72a3,3,0,0,0,2-.51,1.88,1.88,0,0,0,.58-1.48,2.08,2.08,0,0,0-.32-1.14,1.43,1.43,0,0,0-.82-.63,5.74,5.74,0,0,0-1.42-.13H55.86Z"/>
        <path class="cls-7" d="M69.83,119.2a4.87,4.87,0,0,1,3.69,1.52,6.39,6.39,0,0,1,0,8.06,5.25,5.25,0,0,1-7.39,0,6.36,6.36,0,0,1,0-8.06A4.88,4.88,0,0,1,69.83,119.2Zm0,9.89a3.35,3.35,0,0,0,2.63-1.15,4.57,4.57,0,0,0,1-3.19,4.63,4.63,0,0,0-1-3.19,3.38,3.38,0,0,0-2.62-1.14,3.43,3.43,0,0,0-2.65,1.14,5.45,5.45,0,0,0,0,6.38A3.36,3.36,0,0,0,69.82,129.09Z"/>
        <path class="cls-7" d="M85.21,120.66H81.66v9.46H80.23v-9.46H76.72v-1.28h8.49Z"/>
        <path class="cls-7" d="M96.29,130.12h-1.6l-1.24-3.27H89l-1.18,3.27h-1.5l4.12-10.74h1.53ZM93,125.73l-1.89-5-1.8,5Z"/>
        <path class="cls-7" d="M105.85,120.66H102.3v9.46h-1.43v-9.46H97.35v-1.28h8.5Z"/>
        <path class="cls-7" d="M112.77,119.2a4.83,4.83,0,0,1,3.68,1.52,6.36,6.36,0,0,1,0,8.06,4.8,4.8,0,0,1-3.68,1.52,4.88,4.88,0,0,1-3.7-1.52,6.36,6.36,0,0,1,0-8.06A4.88,4.88,0,0,1,112.77,119.2Zm0,9.89a3.35,3.35,0,0,0,2.64-1.15,5.45,5.45,0,0,0,0-6.38,3.35,3.35,0,0,0-2.61-1.14,3.43,3.43,0,0,0-2.65,1.14,5.45,5.45,0,0,0,0,6.38A3.36,3.36,0,0,0,112.75,129.09Z"/>
        <path class="cls-7" d="M128.52,130.12h-8V119.38h7.75v1.28h-6.33v3.28h5.92v1.27h-5.92v3.64h6.58Z"/>
        <path class="cls-7" d="M135.31,130.3a5,5,0,0,1-3.39-1,3.56,3.56,0,0,1-1.18-2.62h1.37a2.24,2.24,0,0,0,1,1.78,3.92,3.92,0,0,0,2.15.57,3.33,3.33,0,0,0,1.92-.49,1.52,1.52,0,0,0,.73-1.33,1.36,1.36,0,0,0-.75-1.29,11.27,11.27,0,0,0-2.6-.8,6.08,6.08,0,0,1-2.64-1.08,2.36,2.36,0,0,1-.8-1.86,2.65,2.65,0,0,1,1-2.14,4.35,4.35,0,0,1,2.77-.83,4.74,4.74,0,0,1,2.93.84,3,3,0,0,1,1.18,2.38h-1.39c-.14-1.3-1-2-2.66-2a3.23,3.23,0,0,0-1.84.45,1.38,1.38,0,0,0-.65,1.19,1.13,1.13,0,0,0,.53,1,6.81,6.81,0,0,0,1.95.65,19.55,19.55,0,0,1,2.27.62,3.72,3.72,0,0,1,1.44,1,2.45,2.45,0,0,1,.6,1.74,2.88,2.88,0,0,1-1.1,2.3A4.33,4.33,0,0,1,135.31,130.3Z"/>
      </g>
      <path class="cls-6" d="M42.37,65.64a11.73,11.73,0,0,0,4.93,6.9"/>
      <path class="cls-6" d="M148.39,79.36s-.06,4.22-6.64,5.25"/>
      <path class="cls-6" d="M70.2,93.1s-8.3-.83-10.12-3"/>
      <path class="cls-6" d="M89.5,74.42s7,4.92,11.43,4.48"/>
    </g>
  </g>
</svg>
