<svg xmlns="http://www.w3.org/2000/svg" xmlns:xlink="http://www.w3.org/1999/xlink" width="200" height="200" viewBox="0 0 200 200">
  <defs>
    <style>
      .cls-1, .cls-10, .cls-7, .cls-9 {
        fill: none;
      }

      .cls-2 {
        opacity: 0.4;
        filter: url(#AI_Shadow_1);
      }

      .cls-3 {
        fill: #fff3d5;
      }

      .cls-4 {
        isolation: isolate;
      }

      .cls-5 {
        clip-path: url(#clip-path);
      }

      .cls-6 {
        fill: #304480;
      }

      .cls-7 {
        stroke: #ffa635;
      }

      .cls-10, .cls-7, .cls-9 {
        stroke-linecap: round;
        stroke-miterlimit: 10;
      }

      .cls-8 {
        fill: #ffa635;
      }

      .cls-9 {
        stroke: #bfb6a0;
      }

      .cls-10, .cls-9 {
        stroke-width: 2px;
      }

      .cls-10 {
        stroke: #fff8e6;
      }
    </style>
    <filter id="AI_Shadow_1" name="AI_Shadow_1">
      <feGaussianBlur result="blur" stdDeviation="2" in="SourceAlpha"/>
      <feOffset result="offsetBlurredAlpha" dx="4" dy="4" in="blur"/>
      <feMerge>
        <feMergeNode in="offsetBlurredAlpha"/>
        <feMergeNode in="SourceGraphic"/>
      </feMerge>
    </filter>
    <clipPath id="clip-path">
      <polygon class="cls-1" points="75.37 104.39 75.39 93.97 116.27 88.22 116.25 98.64 75.37 104.39"/>
    </clipPath>
  </defs>
  <g id="Mel">
    <g class="cls-2">
      <ellipse cx="96.4" cy="158.33" rx="43.22" ry="8.12"/>
    </g>
    <g>
      <path class="cls-3" d="M54.11,58.58c1.23.87,1.39,2.5,1.43,3.74.1,3.58.15,5.37-1.43,8.78-2.38,5.12-2.4,12.07-2.45,26,0,8.17,1,5.34,1.63,18.68.71,14.35,1.24,24.87.41,31.2a11.53,11.53,0,0,0,0,3.17c.06.42.92,6,5.11,8.59,3,1.87,5.21.64,14.29.94,3.76.12,4.38.36,9.2.74,22.2,1.76,24.43-2.19,37.78.38,2.59.5,5.71,1.26,9.4.18,4.08-1.19,8.49-4.53,8.78-8.21.09-1.18-.32-1.33-.2-3.18.16-2.62,1.07-3.53,1.22-5.79a10.41,10.41,0,0,0-.61-4.11c-2.47-8.37,2-41.35-1-62.57-.8-5.58-.41-11.21-4.09-16.44-.3-.43-1-2.7,0-3.55.7-.59,1.74-.07,2.25-.56.88-.86-.68-4-2.25-5.42-3.74-3.36-11.25-.15-20.63,1.87-6,1.3-23.32,5-40,.75-8.23-2.12-14.25-5.64-18.38-2.8-2.46,1.68-4.16,5.55-3.07,6.72C52,58.26,53,57.83,54.11,58.58Z"/>
      <g class="cls-4">
        <g class="cls-5">
          <g>
            <polyline class="cls-6" points="80.9 93.36 75.39 94.13 75.37 104.22 76.69 104.03 76.7 99.47 80.57 98.93 80.57 97.84 76.7 98.39 76.71 95.03 80.9 94.45 80.9 93.36"/>
            <polyline class="cls-6" points="84.09 92.91 82.77 93.09 82.75 103.18 88.45 102.38 88.45 101.28 84.08 101.9 84.09 92.91"/>
            <path class="cls-6" d="M93.39,100.79c-2.07.29-3.25-1.48-3.25-3.63s1.1-4.36,3.28-4.67,3.26,1.64,3.26,3.64c0,2.3-1.2,4.36-3.29,4.66m.09-9.37a5.72,5.72,0,0,0-4.75,6c0,3,1.88,4.85,4.59,4.47s4.74-2.51,4.75-6c0-3-1.79-4.85-4.59-4.46"/>
            <path class="cls-6" d="M107.32,89.64l-1.33.19v6c0,2.23-1,3.36-2.5,3.57-1.36.19-2.38-.62-2.38-2.88l0-6-1.34.19v5.94c0,3.13,1.57,4.1,3.67,3.8s3.86-1.82,3.87-4.92V89.64"/>
            <path class="cls-6" d="M110.92,93.86V90.18a5.82,5.82,0,0,1,1.3-.3c1.4-.18,2.35.26,2.35,1.55a2.37,2.37,0,0,1-2.31,2.24l-1.35.19m1.23-5a15.87,15.87,0,0,0-2.54.56l0,10,1.32-.18V94.85l1.24-.17c1.2-.13,1.74.32,2,1.67a12,12,0,0,0,.67,2.32l1.37-.2a14.07,14.07,0,0,1-.78-2.66c-.24-1-.71-1.66-1.5-1.82v0a3.2,3.2,0,0,0,1.93-2.85,2.19,2.19,0,0,0-.8-1.81,3.89,3.89,0,0,0-2.95-.4"/>
          </g>
        </g>
      </g>
      <path class="cls-7" d="M69.23,115.38c8.58,6.54,16.43,3.46,20,2.43a36.93,36.93,0,0,0,6.13-2.62c8.34-4.06,10.28-7.11,16.13-8.4a22.63,22.63,0,0,1,7.15-.38"/>
      <path class="cls-8" d="M70.66,115.1c-.17.38,1.85,1.9,4.39,2.33a10.8,10.8,0,0,0,6.64-1.21c1.47-.85,2.19-1.86,4.5-2.71.52-.19,1.14-.39,1.12-.47a10.07,10.07,0,0,0-4.08.56c-2,.6-2.42,1.24-3.68,1.78C75.49,117.12,70.91,114.53,70.66,115.1Z"/>
      <path class="cls-8" d="M76.79,120c-.09.21,2.32,1.67,5.52,2,1.15.1,1.29,0,2.45,0,4.25.14,7,2.28,7.15,2s-2.29-2.75-5.83-3.17c-1.54-.19-1.83.2-4.08.09C78.74,120.73,76.87,119.78,76.79,120Z"/>
      <path class="cls-8" d="M88.89,116.92c-.86-.51-.75-2.07,0-2.85.33-.36.51-.26,1.38-.84S91.73,112,91.75,112s-1.08.72-1.07,1.68c0,.38.18.41.31.93,0,.12.37,1.66-.56,2.24A1.59,1.59,0,0,1,88.89,116.92Z"/>
      <path class="cls-8" d="M92.82,115.09c-.86-.51-.75-2.07,0-2.85.33-.36.51-.26,1.38-.84s1.51-1.24,1.53-1.21-1.08.72-1.07,1.68c0,.38.18.41.31.93,0,.12.37,1.66-.56,2.24A1.59,1.59,0,0,1,92.82,115.09Z"/>
      <path class="cls-8" d="M100,111.13c-.86-.51-.75-2.07,0-2.85.32-.36.51-.26,1.38-.84s1.5-1.24,1.53-1.21-1.08.72-1.08,1.68c0,.38.19.41.31.93,0,.12.38,1.66-.56,2.24A1.57,1.57,0,0,1,100,111.13Z"/>
      <path class="cls-8" d="M103.76,108.86c-.86-.51-.75-2.07-.05-2.85.32-.36.51-.26,1.38-.84s1.5-1.24,1.53-1.21-1.08.72-1.07,1.68c0,.38.18.41.3.93,0,.12.38,1.66-.56,2.24A1.57,1.57,0,0,1,103.76,108.86Z"/>
      <path class="cls-8" d="M96.3,113.48c-.87-.51-.76-2.07-.06-2.84.33-.37.52-.27,1.38-.85a18,18,0,0,0,1.54-1.21s-1.09.73-1.08,1.68c0,.38.19.42.31.94,0,.12.37,1.66-.56,2.24A1.57,1.57,0,0,1,96.3,113.48Z"/>
      <path class="cls-8" d="M89.84,119c0,.94,1.46,1.73,2.56,1.63.5,0,.52-.24,1.53-.57s2-.45,2-.48a3.17,3.17,0,0,1-2.13-.13c-.34-.22-.27-.37-.67-.76-.1-.09-1.3-1.21-2.35-.83A1.36,1.36,0,0,0,89.84,119Z"/>
      <path class="cls-8" d="M94,117.2c0,.94,1.55,1.65,2.64,1.51.51-.07.51-.27,1.5-.65s1.94-.55,1.93-.58a3.19,3.19,0,0,1-2.13,0c-.36-.2-.3-.36-.72-.72-.1-.09-1.36-1.15-2.39-.72A1.34,1.34,0,0,0,94,117.2Z"/>
      <path class="cls-8" d="M97.84,115.25c.1.93,1.67,1.56,2.75,1.35.5-.1.49-.3,1.45-.73s1.89-.66,1.88-.69a3.18,3.18,0,0,1-2.13.1c-.36-.18-.31-.34-.76-.68-.11-.08-1.44-1.07-2.44-.57A1.32,1.32,0,0,0,97.84,115.25Z"/>
      <path class="cls-8" d="M119.35,106.22c.21.92,1.84,1.38,2.89,1.06.48-.15.45-.35,1.35-.89s1.8-.85,1.78-.88a3.06,3.06,0,0,1-2.1.33c-.39-.14-.36-.31-.84-.6-.12-.07-1.57-.91-2.49-.31A1.28,1.28,0,0,0,119.35,106.22Z"/>
      <path class="cls-8" d="M101.18,113.38c.1.93,1.67,1.56,2.74,1.34.5-.09.49-.29,1.45-.73s1.9-.66,1.89-.69a3.2,3.2,0,0,1-2.13.1c-.37-.18-.32-.34-.77-.68-.1-.08-1.44-1.06-2.43-.57A1.33,1.33,0,0,0,101.18,113.38Z"/>
      <path class="cls-8" d="M104.44,111.48c.22.92,1.85,1.38,2.9,1,.48-.15.45-.34,1.35-.88s1.8-.85,1.78-.88a3,3,0,0,1-2.1.32c-.39-.13-.36-.3-.84-.59-.12-.07-1.57-.91-2.49-.31A1.28,1.28,0,0,0,104.44,111.48Z"/>
      <path class="cls-8" d="M108,109.48c.19.69,1.5,1.06,2.32.85.38-.1.35-.25,1.05-.63s1.4-.58,1.39-.61a2.48,2.48,0,0,1-1.66.19c-.31-.11-.29-.23-.68-.45-.1-.06-1.27-.71-2-.29A.86.86,0,0,0,108,109.48Z"/>
      <path class="cls-8" d="M107.47,107.14c-.53-.51-.2-1.73.43-2.26.29-.24.41-.14,1.12-.49s1.28-.79,1.3-.77-.9.44-1,1.2c0,.3.07.34.07.77,0,.1,0,1.36-.76,1.7A1.08,1.08,0,0,1,107.47,107.14Z"/>
      <path class="cls-8" d="M111.5,106c-.53-.51-.2-1.73.43-2.26.29-.24.41-.14,1.12-.49s1.28-.79,1.3-.77-.9.44-1,1.19c-.06.3.06.35.06.78,0,.1,0,1.35-.76,1.7A1.08,1.08,0,0,1,111.5,106Z"/>
      <path class="cls-8" d="M115.68,105.3c-.4-.6.23-1.72,1-2.1.35-.18.44-.06,1.22-.25s1.44-.51,1.45-.48-1,.24-1.31,1c-.13.28,0,.35-.12.76,0,.1-.34,1.32-1.17,1.5A1,1,0,0,1,115.68,105.3Z"/>
      <path class="cls-8" d="M111.81,108.13c.19.69,1.5,1.06,2.32.85.38-.1.35-.25,1.05-.63s1.4-.58,1.39-.61a2.54,2.54,0,0,1-1.66.2c-.31-.12-.29-.24-.68-.46-.1,0-1.27-.71-2-.29A.86.86,0,0,0,111.81,108.13Z"/>
      <path class="cls-8" d="M116.29,107.86c.2.69,1.51,1.06,2.33.85.38-.1.35-.25,1-.63s1.4-.58,1.39-.61a2.54,2.54,0,0,1-1.66.2c-.31-.12-.29-.24-.69-.46-.09,0-1.26-.71-2-.29A.87.87,0,0,0,116.29,107.86Z"/>
      <path class="cls-9" d="M132,58.78s-4.72,3.83-17.79,3.68"/>
      <path class="cls-9" d="M74.32,63.49s-6.46.77-17.89-4.09"/>
      <path class="cls-9" d="M106.05,63.53c-1.37.51-12.59,3.52-22.84.39"/>
      <path class="cls-9" d="M61.37,107s0-1.54-9.17-5.43"/>
      <path class="cls-9" d="M137.83,138s-.28,3.59-7.1,3.8"/>
      <path class="cls-9" d="M137.49,149.55s-7,5.66-15.71,3.6"/>
      <path class="cls-9" d="M54.48,144.36S57.92,151.11,68,149"/>
      <path class="cls-9" d="M75.46,159.17s10.16,1.44,17.43-3.18"/>
      <path class="cls-9" d="M117.44,159.8s-6.21-.86-6.56-2.12"/>
      <path class="cls-10" d="M55.4,69.33s.22,3.54,3.51,3.54"/>
    </g>
  </g>
</svg>
