<svg xmlns="http://www.w3.org/2000/svg" width="357.9" height="237.3" viewBox="0 0 357.9 237.3">
  <defs>
    <style>
      .cls-1 {
        fill: #ffbff5;
        stroke: #ff6af8;
        stroke-linejoin: round;
        stroke-width: 20px;
      }

      .cls-1, .cls-3 {
        stroke-linecap: round;
      }

      .cls-2 {
        fill: #fff67f;
      }

      .cls-3 {
        fill: none;
        stroke: #fff;
        stroke-miterlimit: 10;
        stroke-width: 2px;
      }

      .cls-4 {
        fill: #15ff36;
      }
    </style>
  </defs>
  <g id="Play_pynt" data-name="Play pynt">
    <rect class="cls-1" x="45.49" y="84.89" width="273.54" height="86.73"/>
    <g>
      <path d="M122,113h10.69a22.28,22.28,0,0,1,5.88.66,6.29,6.29,0,0,1,3.76,2.83,8.82,8.82,0,0,1,1.39,4.87,8,8,0,0,1-2.75,6.58c-1.84,1.5-4.49,2.25-8,2.25h-7.21v11.45H122Zm3.79,13.79H133c2.43,0,4.17-.45,5.2-1.37a5,5,0,0,0,1.56-3.94,5.52,5.52,0,0,0-.86-3,3.78,3.78,0,0,0-2.18-1.68,15.91,15.91,0,0,0-3.8-.35h-7.17Z"/>
      <path d="M174.36,141.64H156.64V113h3.79v25.24h13.93Z"/>
      <path d="M210.4,141.64h-4.27l-3.32-8.72h-12l-3.16,8.72h-4l11-28.64h4.08Zm-8.71-11.72-5-13.28-4.8,13.28Z"/>
      <path d="M244.85,113,233.6,129.51v12.13h-3.79V129.51L218.56,113h4.61l8.55,13.19L240.24,113Z"/>
    </g>
    <circle class="cls-2" cx="45.13" cy="171.46" r="5.25"/>
    <path class="cls-3" d="M41.48,171.76a3.65,3.65,0,0,1,3.65-3.66"/>
    <circle class="cls-2" cx="45.13" cy="171.46" r="5.25"/>
    <path class="cls-3" d="M41.48,171.76a3.65,3.65,0,0,1,3.65-3.66"/>
    <circle class="cls-2" cx="46.51" cy="86.4" r="5.25"/>
    <path class="cls-3" d="M42.85,86.7a3.65,3.65,0,0,1,3.66-3.65"/>
    <circle class="cls-2" cx="156.06" cy="84.4" r="5.25"/>
    <path class="cls-3" d="M152.4,84.7a3.65,3.65,0,0,1,3.66-3.65"/>
    <circle class="cls-2" cx="156.06" cy="84.4" r="5.25"/>
    <path class="cls-3" d="M152.4,84.7a3.65,3.65,0,0,1,3.66-3.65"/>
    <circle class="cls-2" cx="96.22" cy="85.4" r="5.25"/>
    <path class="cls-3" d="M92.57,85.7a3.64,3.64,0,0,1,3.65-3.65"/>
    <circle class="cls-2" cx="212.87" cy="85.4" r="5.25"/>
    <path class="cls-3" d="M209.21,85.7a3.65,3.65,0,0,1,3.66-3.65"/>
    <circle class="cls-2" cx="212.87" cy="85.4" r="5.25"/>
    <path class="cls-3" d="M209.21,85.7a3.65,3.65,0,0,1,3.66-3.65"/>
    <circle class="cls-2" cx="266.08" cy="84.73" r="5.25"/>
    <path class="cls-3" d="M262.43,85a3.65,3.65,0,0,1,3.65-3.65"/>
    <circle class="cls-2" cx="266.08" cy="84.73" r="5.25"/>
    <path class="cls-3" d="M262.43,85a3.65,3.65,0,0,1,3.65-3.65"/>
    <circle class="cls-2" cx="316.42" cy="85.4" r="5.25"/>
    <path class="cls-3" d="M312.76,85.7a3.65,3.65,0,0,1,3.66-3.65"/>
    <circle class="cls-2" cx="316.42" cy="85.4" r="5.25"/>
    <path class="cls-3" d="M312.76,85.7a3.65,3.65,0,0,1,3.66-3.65"/>
    <circle class="cls-2" cx="318.68" cy="126.72" r="5.25"/>
    <path class="cls-3" d="M315,127a3.66,3.66,0,0,1,3.66-3.65"/>
    <circle class="cls-2" cx="318.68" cy="126.72" r="5.25"/>
    <path class="cls-3" d="M315,127a3.66,3.66,0,0,1,3.66-3.65"/>
    <circle class="cls-2" cx="318.68" cy="171.46" r="5.25"/>
    <path class="cls-3" d="M315,171.76a3.66,3.66,0,0,1,3.66-3.66"/>
    <circle class="cls-2" cx="318.68" cy="171.46" r="5.25"/>
    <path class="cls-3" d="M315,171.76a3.66,3.66,0,0,1,3.66-3.66"/>
    <circle class="cls-2" cx="271.33" cy="171.46" r="5.25"/>
    <path class="cls-3" d="M267.68,171.76a3.65,3.65,0,0,1,3.65-3.66"/>
    <circle class="cls-2" cx="271.33" cy="171.46" r="5.25"/>
    <path class="cls-3" d="M267.68,171.76a3.65,3.65,0,0,1,3.65-3.66"/>
    <circle class="cls-2" cx="214.46" cy="171.76" r="5.25"/>
    <path class="cls-3" d="M210.81,172.05a3.65,3.65,0,0,1,3.65-3.65"/>
    <circle class="cls-2" cx="214.46" cy="171.76" r="5.25"/>
    <path class="cls-3" d="M210.81,172.05a3.65,3.65,0,0,1,3.65-3.65"/>
    <circle class="cls-2" cx="156.06" cy="171.46" r="5.25"/>
    <path class="cls-3" d="M152.4,171.76a3.66,3.66,0,0,1,3.66-3.66"/>
    <circle class="cls-2" cx="156.06" cy="171.46" r="5.25"/>
    <path class="cls-3" d="M152.4,171.76a3.66,3.66,0,0,1,3.66-3.66"/>
    <circle class="cls-2" cx="97.49" cy="171.46" r="5.25"/>
    <path class="cls-3" d="M93.84,171.76a3.65,3.65,0,0,1,3.65-3.66"/>
    <circle class="cls-2" cx="97.49" cy="171.46" r="5.25"/>
    <path class="cls-3" d="M93.84,171.76a3.65,3.65,0,0,1,3.65-3.66"/>
    <circle class="cls-2" cx="45.68" cy="127.09" r="5.25"/>
    <path class="cls-3" d="M42,127.39a3.64,3.64,0,0,1,3.65-3.65"/>
    <circle class="cls-2" cx="45.68" cy="127.09" r="5.25"/>
    <path class="cls-3" d="M42,127.39a3.64,3.64,0,0,1,3.65-3.65"/>
    <circle class="cls-2" cx="70.78" cy="85.7" r="5.25"/>
    <path class="cls-3" d="M67.13,86a3.65,3.65,0,0,1,3.65-3.66"/>
    <circle class="cls-4" cx="70.78" cy="85.7" r="5.25"/>
    <path class="cls-3" d="M67.13,86a3.65,3.65,0,0,1,3.65-3.66"/>
    <circle class="cls-2" cx="126.14" cy="85.4" r="5.25"/>
    <path class="cls-3" d="M122.49,85.7a3.64,3.64,0,0,1,3.65-3.65"/>
    <circle class="cls-4" cx="126.14" cy="85.4" r="5.25"/>
    <path class="cls-3" d="M122.49,85.7a3.64,3.64,0,0,1,3.65-3.65"/>
    <circle class="cls-2" cx="184.46" cy="84.17" r="5.25"/>
    <path class="cls-3" d="M180.81,84.47a3.64,3.64,0,0,1,3.65-3.65"/>
    <circle class="cls-4" cx="184.46" cy="84.17" r="5.25"/>
    <path class="cls-3" d="M180.81,84.47a3.64,3.64,0,0,1,3.65-3.65"/>
    <circle class="cls-2" cx="240.27" cy="84.64" r="5.25"/>
    <path class="cls-3" d="M236.62,84.94a3.64,3.64,0,0,1,3.65-3.65"/>
    <circle class="cls-4" cx="240.27" cy="84.64" r="5.25"/>
    <path class="cls-3" d="M236.62,84.94a3.64,3.64,0,0,1,3.65-3.65"/>
    <circle class="cls-2" cx="291.25" cy="84.87" r="5.25"/>
    <path class="cls-3" d="M287.59,85.17a3.65,3.65,0,0,1,3.66-3.65"/>
    <circle class="cls-4" cx="291.25" cy="84.87" r="5.25"/>
    <path class="cls-3" d="M287.59,85.17a3.65,3.65,0,0,1,3.66-3.65"/>
    <circle class="cls-2" cx="317.68" cy="106.81" r="5.25"/>
    <path class="cls-3" d="M314,107.11a3.65,3.65,0,0,1,3.66-3.65"/>
    <circle class="cls-4" cx="317.68" cy="106.81" r="5.25"/>
    <path class="cls-3" d="M314,107.11a3.65,3.65,0,0,1,3.66-3.65"/>
    <circle class="cls-2" cx="318.68" cy="149.09" r="5.25"/>
    <path class="cls-3" d="M315,149.39a3.66,3.66,0,0,1,3.66-3.66"/>
    <circle class="cls-4" cx="318.68" cy="149.09" r="5.25"/>
    <path class="cls-3" d="M315,149.39a3.66,3.66,0,0,1,3.66-3.66"/>
    <circle class="cls-2" cx="295" cy="172.05" r="5.25"/>
    <path class="cls-3" d="M291.35,172.35A3.64,3.64,0,0,1,295,168.7"/>
    <circle class="cls-4" cx="295" cy="172.05" r="5.25"/>
    <path class="cls-3" d="M291.35,172.35A3.64,3.64,0,0,1,295,168.7"/>
    <circle class="cls-2" cx="242.89" cy="172.05" r="5.25"/>
    <path class="cls-3" d="M239.24,172.35a3.65,3.65,0,0,1,3.65-3.65"/>
    <circle class="cls-4" cx="242.89" cy="172.05" r="5.25"/>
    <path class="cls-3" d="M239.24,172.35a3.65,3.65,0,0,1,3.65-3.65"/>
    <circle class="cls-2" cx="185.26" cy="171.76" r="5.25"/>
    <path class="cls-3" d="M181.61,172.05a3.65,3.65,0,0,1,3.65-3.65"/>
    <circle class="cls-4" cx="185.26" cy="171.76" r="5.25"/>
    <path class="cls-3" d="M181.61,172.05a3.65,3.65,0,0,1,3.65-3.65"/>
    <circle class="cls-2" cx="126.77" cy="171.76" r="5.25"/>
    <path class="cls-3" d="M123.12,172.05a3.66,3.66,0,0,1,3.65-3.65"/>
    <circle class="cls-4" cx="126.77" cy="171.76" r="5.25"/>
    <path class="cls-3" d="M123.12,172.05a3.66,3.66,0,0,1,3.65-3.65"/>
    <circle class="cls-2" cx="71.31" cy="172.35" r="5.25"/>
    <path class="cls-3" d="M67.66,172.65A3.65,3.65,0,0,1,71.31,169"/>
    <circle class="cls-4" cx="71.31" cy="172.35" r="5.25"/>
    <path class="cls-3" d="M67.66,172.65A3.65,3.65,0,0,1,71.31,169"/>
    <circle class="cls-2" cx="45.13" cy="149.39" r="5.25"/>
    <path class="cls-3" d="M41.48,149.68A3.65,3.65,0,0,1,45.13,146"/>
    <circle class="cls-4" cx="45.13" cy="149.39" r="5.25"/>
    <path class="cls-3" d="M41.48,149.68A3.65,3.65,0,0,1,45.13,146"/>
    <circle class="cls-2" cx="45.51" cy="106.81" r="5.25"/>
    <path class="cls-3" d="M41.85,107.11a3.65,3.65,0,0,1,3.66-3.65"/>
    <circle class="cls-4" cx="45.51" cy="106.81" r="5.25"/>
    <path class="cls-3" d="M41.85,107.11a3.65,3.65,0,0,1,3.66-3.65"/>
  </g>
</svg>
