<svg xmlns="http://www.w3.org/2000/svg" xmlns:xlink="http://www.w3.org/1999/xlink" width="200" height="200" viewBox="0 0 200 200">
  <defs>
    <style>
      .cls-1, .cls-7 {
        fill: none;
      }

      .cls-2 {
        opacity: 0.4;
        filter: url(#AI_Shadow_1);
      }

      .cls-3 {
        fill: #fff3d5;
      }

      .cls-4 {
        isolation: isolate;
      }

      .cls-5 {
        clip-path: url(#clip-path);
      }

      .cls-6 {
        fill: #c7b299;
      }

      .cls-7 {
        stroke: #fff8e6;
        stroke-miterlimit: 10;
        stroke-width: 2px;
      }

      .cls-7, .cls-9 {
        stroke-linecap: round;
      }

      .cls-8, .cls-9 {
        fill: #e6e6e6;
      }

      .cls-9 {
        stroke: #e6e6e6;
        stroke-linejoin: round;
      }

      .cls-10 {
        fill: #fff;
      }

      .cls-11 {
        fill: #ccc;
      }
    </style>
    <filter id="AI_Shadow_1" name="AI_Shadow_1">
      <feGaussianBlur result="blur" stdDeviation="2" in="SourceAlpha"/>
      <feOffset result="offsetBlurredAlpha" dx="4" dy="4" in="blur"/>
      <feMerge>
        <feMergeNode in="offsetBlurredAlpha"/>
        <feMergeNode in="SourceGraphic"/>
      </feMerge>
    </filter>
    <clipPath id="clip-path">
      <polygon class="cls-1" points="81.07 98.21 81.09 87.79 124.64 81.67 124.62 92.09 81.07 98.21"/>
    </clipPath>
  </defs>
  <g id="Sugar">
    <g class="cls-2">
      <ellipse cx="102.56" cy="152.94" rx="42.05" ry="7.08"/>
    </g>
    <g>
      <g>
        <path class="cls-3" d="M60.22,52.22c1.23.87,1.4,2.5,1.43,3.74.1,3.58.15,5.37-1.43,8.78-2.37,5.12-2.4,12.07-2.45,26,0,8.17,1,5.34,1.64,18.68.71,14.35,1.23,24.87.41,31.19a11.21,11.21,0,0,0,0,3.18c0,.42.91,6,5.1,8.59,3,1.86,5.21.64,14.3.93,3.76.13,4.38.37,9.19.75,22.21,1.76,24.44-2.19,37.79.38,2.58.49,5.71,1.26,9.39.18,4.09-1.19,8.5-4.53,8.79-8.22.09-1.18-.32-1.32-.21-3.17.17-2.62,1.07-3.53,1.23-5.79a10.6,10.6,0,0,0-.61-4.11c-2.47-8.37,2-41.35-1-62.58-.79-5.57-.4-11.2-4.08-16.43-.3-.44-1-2.71,0-3.55.7-.59,1.74-.07,2.25-.56.88-.86-.68-4-2.25-5.42-3.75-3.37-11.25-.16-20.63,1.87-6,1.3-23.33,5-40,.75-8.23-2.12-14.26-5.65-18.39-2.81-2.45,1.69-4.15,5.56-3.06,6.73C58.13,51.89,59.15,51.46,60.22,52.22Z"/>
        <g class="cls-4">
          <g class="cls-5">
            <g>
              <path class="cls-6" d="M84.61,87.29c-2,.28-3.31,1.64-3.31,3.21s1,2.13,2.69,2.47c1.38.34,1.92.8,1.92,1.74s-.79,1.83-2.14,2a4.26,4.26,0,0,1-2.36-.32l-.34,1.14a5,5,0,0,0,2.61.27c2.41-.33,3.58-1.85,3.59-3.4s-.88-2.18-2.61-2.6c-1.41-.34-2-.72-2-1.66,0-.68.54-1.58,1.93-1.78a3.7,3.7,0,0,1,1.94.21l.37-1.12a4.49,4.49,0,0,0-2.26-.18"/>
              <path class="cls-6" d="M96.61,85.77,95.27,86v6c0,2.23-1,3.35-2.49,3.56-1.37.19-2.38-.62-2.38-2.88v-6l-1.33.18,0,5.94c0,3.13,1.57,4.1,3.67,3.8s3.87-1.81,3.88-4.92V85.77"/>
              <path class="cls-6" d="M103.83,84.65a6.07,6.07,0,0,0-5.55,6A4.5,4.5,0,0,0,99.7,94.2a4.77,4.77,0,0,0,3.82.79,10.62,10.62,0,0,0,3.14-1V89.15l-3.36.47v1l2.07-.3v3a4.73,4.73,0,0,1-1.76.52c-2.38.33-3.94-1-3.93-3.52a4.5,4.5,0,0,1,4.12-4.63,5.16,5.16,0,0,1,2.25.11l.33-1.1a6.14,6.14,0,0,0-2.55-.11"/>
              <path class="cls-6" d="M110.61,89.7l1-3c.2-.65.37-1.28.52-1.91h0c.15.56.3,1.14.53,1.76l1,2.77-3.09.43M113,83.47l-1.59.22-3.5,10.58,1.37-.19,1.07-3.32,3.63-.51,1.08,3,1.41-.2L113,83.47"/>
              <path class="cls-6" d="M119.29,87.31V83.63a6,6,0,0,1,1.3-.3c1.39-.18,2.36.25,2.35,1.55a2.36,2.36,0,0,1-2.31,2.24l-1.35.19m1.22-5a14,14,0,0,0-2.53.57l0,10,1.32-.19V88.3l1.25-.18c1.19-.12,1.73.33,2,1.68a10.89,10.89,0,0,0,.68,2.31l1.36-.19a14.33,14.33,0,0,1-.78-2.66c-.24-1-.71-1.67-1.5-1.82v0a3.2,3.2,0,0,0,1.93-2.85,2.12,2.12,0,0,0-.8-1.8,3.86,3.86,0,0,0-3-.41"/>
            </g>
          </g>
        </g>
        <path class="cls-7" d="M138.07,52.41s-4.71,3.84-17.78,3.69"/>
        <path class="cls-7" d="M80.44,57.12S74,57.89,62.55,53"/>
        <path class="cls-7" d="M112.17,57.17c-1.38.5-12.59,3.51-22.84.39"/>
        <path class="cls-7" d="M67.48,100.6s0-1.55-9.16-5.44"/>
        <path class="cls-7" d="M144,131.61s-.29,3.59-7.1,3.8"/>
        <path class="cls-7" d="M143.6,143.19s-7,5.65-15.7,3.59"/>
        <path class="cls-7" d="M60.59,138s3.44,6.75,13.48,4.67"/>
        <path class="cls-7" d="M81.57,152.8s10.17,1.45,17.44-3.17"/>
        <path class="cls-7" d="M123.56,153.44s-6.21-.87-6.56-2.12"/>
        <path class="cls-7" d="M61.52,63s.22,3.54,3.51,3.54"/>
      </g>
      <ellipse class="cls-8" cx="93.9" cy="116.65" rx="11.99" ry="6.41" transform="translate(-28.25 30.03) rotate(-15.82)"/>
      <rect class="cls-9" x="94.8" y="105.03" width="38.79" height="1.48" transform="translate(-37.58 71.27) rotate(-30)"/>
      <circle class="cls-10" cx="86.59" cy="119" r="0.42"/>
      <circle class="cls-10" cx="87.01" cy="117.9" r="0.42"/>
      <circle class="cls-10" cx="87.01" cy="118.52" r="0.42"/>
      <circle class="cls-10" cx="87.42" cy="117.36" r="0.42"/>
      <circle class="cls-10" cx="87.49" cy="116.65" r="0.42"/>
      <circle class="cls-10" cx="87.42" cy="115.95" r="0.42"/>
      <circle class="cls-10" cx="87.74" cy="115.64" r="0.42"/>
      <circle class="cls-10" cx="88.03" cy="115.11" r="0.42"/>
      <circle class="cls-10" cx="88.37" cy="114.55" r="0.42"/>
      <circle class="cls-10" cx="88.86" cy="114.14" r="0.42"/>
      <circle class="cls-10" cx="89.28" cy="113.59" r="0.42"/>
      <circle class="cls-10" cx="90.02" cy="113.41" r="0.42"/>
      <circle class="cls-10" cx="90.71" cy="113.41" r="0.42"/>
      <circle class="cls-10" cx="91.32" cy="113.31" r="0.42"/>
      <circle class="cls-10" cx="92.06" cy="113.07" r="0.42"/>
      <circle class="cls-10" cx="92.78" cy="112.99" r="0.42"/>
      <circle class="cls-10" cx="93.2" cy="112.81" r="0.42"/>
      <circle class="cls-10" cx="93.9" cy="112.89" r="0.42"/>
      <circle class="cls-10" cx="94.32" cy="113.13" r="0.42"/>
      <circle class="cls-10" cx="94.84" cy="113.31" r="0.42"/>
      <circle class="cls-10" cx="95.47" cy="113.49" r="0.42"/>
      <circle class="cls-10" cx="96.08" cy="113.49" r="0.42"/>
      <circle class="cls-10" cx="96.59" cy="113.53" r="0.42"/>
      <circle class="cls-10" cx="96.91" cy="113.72" r="0.42"/>
      <circle class="cls-10" cx="97.32" cy="113.9" r="0.42"/>
      <circle class="cls-10" cx="97.85" cy="113.95" r="0.42"/>
      <circle class="cls-10" cx="98.52" cy="114.14" r="0.42"/>
      <circle class="cls-10" cx="99.1" cy="114.36" r="0.42"/>
      <circle class="cls-10" cx="99.66" cy="114.65" r="0.42"/>
      <circle class="cls-10" cx="100.35" cy="114.97" r="0.42"/>
      <circle class="cls-10" cx="100.99" cy="114.91" r="0.42"/>
      <ellipse class="cls-10" cx="92.01" cy="114.55" rx="3.93" ry="1.53" transform="translate(-18.44 17.66) rotate(-9.97)"/>
      <path class="cls-10" d="M87.24,117.18c0,1.08-1.84,2.58,1.43,2.58s12.42-3.15,12.42-4.23-6.35-1.17-9.62-1.17S87.24,116.1,87.24,117.18Z"/>
      <path class="cls-10" d="M99,114.57c0,.46-.67.84-1.5.84s-2.29-.94-2.29-1.41,1.46-.28,2.29-.28S99,114.1,99,114.57Z"/>
      <path class="cls-11" d="M102.26,115.7c.18,1.29-3.07,3.64-8,4.33s-8.16.65-8.34-.64,3.13-.7,8-1.4S102.08,114.42,102.26,115.7Z"/>
    </g>
  </g>
</svg>
